<svg xmlns="http://www.w3.org/2000/svg" viewBox="122.5 164.7 171.9 184.1">
  <path
    d="M188 384v-20c0-7-4-10-11-7l-23 11c-10 5-19 3-26-4-8-10-7-24 5-31l5-4c8-4 9-10 4-17l-14-19c-4-6-7-12-5-20 3-17 21-23 35-12 9 8 16 18 22 27 8 11 17 21 28 28 12 7 21 17 23 31 2 13 2 26 0 39-1 11-14 20-24 19-11 0-19-9-19-21Z"
    style="fill:#be1919" transform="translate(0 -57)" />
  <path
    d="m255 260 11-5c9-4 19 1 24 10s3 19-5 25l-7 5c-6 4-7 8-4 15 2 6 6 10 9 15 5 5 9 10 11 17 2 9-2 19-11 24-7 5-16 4-24-3l-9-11-19-26c-5-7-11-13-19-18l-15-13c-8-8-12-17-12-28v-23c0-11 8-20 18-22 8-2 18 2 23 10 3 5 3 11 3 16v15c1 5 4 7 8 5 7-2 12-5 18-8Z"
    style="fill:#FFF" transform="translate(0 -57)" />
</svg>