<svg xmlns="http://www.w3.org/2000/svg" class="icon" viewBox="0 0 1024 1024">
  <path fill="currentColor" d="M768 981.3333H256c-72.5333 0-128-55.4666-128-128V170.6667c0-72.5334 55.4667-128 128-128h341.3333c12.8 0 21.3334 4.2666 29.8667 12.8l256 256C891.7333 320 896 328.5333 896 341.3333v512c0 72.5334-55.4667 128-128 128zM256 128c-25.6 0-42.6667 17.0667-42.6667 42.6667v682.6666C213.3333 878.9333 230.4 896 256 896h512c25.6 0 42.6667-17.0667 42.6667-42.6667V358.4l-230.4-230.4H256z"/>
  <path fill="currentColor" d="M853.3333 384h-256c-25.6 0-42.6666-17.0667-42.6666-42.6667v-256c0-25.6 17.0666-42.6666 42.6666-42.6666S640 59.7333 640 85.3333v213.3334h213.3333c25.6 0 42.6667 17.0666 42.6667 42.6666S878.9333 384 853.3333 384zM512 810.6667c-25.6 0-42.6667-17.0667-42.6667-42.6667V512c0-25.6 17.0667-42.6667 42.6667-42.6667S554.6667 486.4 554.6667 512v256c0 25.6-17.0667 42.6667-42.6667 42.6667z"/>
  <path fill="currentColor" d="M640 682.6667H384c-25.6 0-42.6667-17.0667-42.6667-42.6667S358.4 597.3333 384 597.3333h256c25.6 0 42.6667 17.0667 42.6667 42.6667S665.6 682.6667 640 682.6667z"/>
</svg>